<?xml version="1.0" encoding="UTF-8" standalone="no"?>
<svg id="svg1" width="340" height="566" version="1.1"  overflow="visable" xmlns="http://www.w3.org/2000/svg" xmlns:svg="http://www.w3.org/2000/svg">

        <defs>

            <g id="clock">
                
                <path id="body" fill="#e8d593" stroke="#332f22" stroke-width="8" d="M 169.6,12.1 C 105.5,11.6 47.4,50 22.9,109.3 -1.7,168.6 12.1,236.8 57.8,281.8 c 61.6,62.1 162,62.1 223.6,0 62.1,-61.6 62.1,-162 0,-223.6 C 251.8,28.5 211.5,12 169.6,12.1 Z" />
                <path id="arabic" d="m 282,232.6 v 4 h -2.9 z m 4.5,-11 h -2.3 l -13.7,19.5 h 11.4 v 5 h 4.5 v -5 h 2.6 v -4.5 h -2.6 v -15 m -7.4,-116.9 -10.1,10.9 h 18.5 v -4.5 h -8.4 l 3.5,-3.7 c 1.8,-1.9 3,-3.4 3.5,-4.5 0.7,-1.2 1,-2.6 1,-4 0,-2.1 -0.8,-3.9 -2.2,-5.4 -1.4,-1.5 -3.4,-2.3 -5.6,-2.3 -2.3,0 -4.3,0.8 -5.8,2.4 -1.5,1.5 -2.4,3.6 -2.4,6.1 v 1.2 h 4.4 l 0.1,-1.1 c 0.1,-1.3 0.6,-2.4 1.2,-3.1 0.7,-0.7 1.5,-1 2.5,-1 1,0 1.8,0.3 2.4,1 0.7,0.7 1,1.4 1,2.2 0,0.8 -0.2,1.4 -0.6,2.1 -0.3,0.6 -1.1,1.7 -3.1,3.7 m 25.1,64.9 c -0.3,-0.4 -0.8,-0.9 -1.3,-1.2 1.2,-1.1 1.8,-2.6 1.8,-4.3 0,-1.2 -0.3,-2.3 -1,-3.3 -0.7,-1.1 -1.5,-1.9 -2.8,-2.5 -1.1,-0.6 -2.4,-0.9 -3.7,-0.9 -1.9,0 -3.4,0.6 -4.7,1.8 -1.3,1.1 -2.2,2.8 -2.6,4.7 l -0.3,1.4 h 4.5 l 0.3,-0.8 c 0.3,-1 0.9,-1.8 1.3,-2.1 0.4,-0.3 1,-0.6 1.7,-0.6 0.9,0 1.5,0.2 2,0.7 0.4,0.4 0.8,1 0.8,1.5 0,0.4 -0.1,0.8 -0.3,1.1 -0.2,0.3 -0.7,0.7 -1.2,0.9 -0.7,0.3 -1.4,0.4 -2.2,0.4 h -1.2 v 4.3 l 1.1,0.1 c 1.9,0.1 2.8,0.3 3.2,0.6 0.6,0.3 1,0.7 1.4,1.2 0.3,0.6 0.6,1.1 0.6,1.7 0,0.9 -0.3,1.8 -1.1,2.4 -0.8,0.7 -1.7,1.1 -2.9,1.1 -1.1,0 -1.9,-0.3 -2.5,-0.9 -0.6,-0.4 -0.9,-1.3 -1.2,-2.4 l -0.2,-0.9 h -4.5 l 0.2,1.4 c 0.4,2.3 1.4,4.2 2.9,5.4 1.4,1.2 3.3,1.9 5.4,1.9 1.5,0 3,-0.3 4.3,-1.1 1.3,-0.7 2.3,-1.8 3.1,-3 0.8,-1.3 1.1,-2.6 1.1,-4.1 0,-1.7 -0.6,-3.2 -1.7,-4.6 m -234.9,-52.9 c -1.2,0.9 -2.6,1 -3.9,0 -0.7,-0.6 -1.2,-1.2 -1.5,-2.3 -0.3,-1.1 -0.6,-2.9 -0.6,-5.1 0,-2.3 0.2,-4 0.6,-5.1 0.3,-1 0.9,-1.8 1.5,-2.3 0.7,-0.4 1.3,-0.7 2,-0.7 0.7,0 1.3,0.2 2,0.7 0.7,0.4 1.2,1.3 1.5,2.4 0.4,1.2 0.7,2.9 0.7,5 0,2 -0.2,3.7 -0.8,5.2 -0.3,1 -0.9,1.8 -1.4,2.2 z m 2.4,-18.5 c -1.3,-1 -2.9,-1.4 -4.5,-1.4 -1.7,0 -3.1,0.4 -4.4,1.4 -1.3,0.9 -2.3,2.3 -3,4.1 -0.7,1.7 -1,4 -1,7.1 0,3 0.3,5.3 1,7.1 0.7,1.8 1.8,3.2 3,4.1 1.3,0.9 2.8,1.4 4.4,1.4 1.7,0 3.2,-0.4 4.5,-1.4 1.3,-1 2.3,-2.3 3.1,-4.2 0.7,-1.8 1.1,-4 1.1,-6.9 0,-2.9 -0.3,-5.2 -1.1,-6.9 -0.8,-1.8 -1.8,-3.2 -3.1,-4.2 m 162.3,177.7 c -0.3,0 -0.7,0 -1,0.1 l 0.6,-3.1 h 7.8 v -4.4 h -11.6 l -2.5,13.9 2.1,-0.9 c 3.4,-1.4 5.6,-1.3 6.9,0 0.7,0.7 1,1.5 1,2.6 0,1.3 -0.4,2.3 -1.2,3.2 -0.8,0.8 -1.7,1.2 -2.8,1.2 -0.6,0 -1,-0.1 -1.5,-0.3 -0.4,-0.2 -0.9,-0.6 -1.1,-0.9 -0.3,-0.3 -0.4,-0.9 -0.7,-1.5 l -0.2,-1 h -4.6 l 0.2,1.3 c 0.2,2 1.1,3.6 2.5,4.9 1.4,1.2 3.2,1.9 5.2,1.9 1.7,0 3.2,-0.3 4.4,-1.1 1.3,-0.8 2.3,-1.8 3.1,-3.2 0.8,-1.3 1.1,-2.9 1.1,-4.5 0,-2.3 -0.8,-4.3 -2.2,-5.8 -1.5,-1.5 -3.4,-2.3 -5.7,-2.3 m -0.9,-204.3 h 4.5 v -23.9 h -6.1 l -2.8,4.5 h 4.3 v 19.4 m -63.1,234.1 c -0.9,0 -1.7,-0.3 -2.3,-1 -0.7,-0.7 -1,-1.4 -1,-2.3 0,-0.9 0.3,-1.7 1,-2.3 0.7,-0.7 1.4,-1 2.3,-1 0.9,0 1.7,0.3 2.3,1 0.7,0.7 1,1.4 1,2.3 0,0.9 -0.3,1.7 -1,2.3 -0.7,0.7 -1.4,1 -2.3,1 z m 0.8,-10.9 5,-7.5 -3.7,-2.4 -7.2,10.7 c -1,1.4 -1.7,2.6 -2.1,3.7 -0.4,1.1 -0.6,2.2 -0.6,3.2 0,1.4 0.3,2.6 1,3.9 0.7,1.2 1.7,2.2 2.9,2.9 1.2,0.7 2.5,1 3.9,1 1.4,0 2.8,-0.3 4,-1 1.2,-0.7 2.2,-1.7 2.9,-2.9 0.7,-1.2 1,-2.5 1,-4 0,-2.1 -0.8,-4 -2.1,-5.4 -1.3,-1.4 -3,-2.1 -4.9,-2.2 M 162.6,54.6 v -23.9 h -6.1 l -2.8,4.5 h 4.3 v 19.4 H 162.6 M 97.9,272.8 h 9.5 l -9.6,18.4 4,2 13,-24.9 H 97.9 v 4.4 M 42.1,168.6 c -0.9,0 -1.7,-0.3 -2.3,-1 -0.7,-0.7 -1,-1.4 -1,-2.3 0,-0.9 0.3,-1.7 1,-2.3 0.7,-0.7 1.4,-1 2.3,-1 0.9,0 1.7,0.3 2.3,1 0.7,0.7 1,1.4 1,2.3 0,0.9 -0.3,1.7 -1,2.3 -0.7,0.7 -1.4,1 -2.3,1 z m 4,-10.1 c -2.4,-1.3 -5.4,-1.3 -7.8,0 -1.2,0.7 -2.2,1.7 -2.9,2.9 -0.7,1.2 -1,2.5 -1,4 0,2.1 0.7,4 2.1,5.4 1.3,1.4 3,2.1 5,2.2 l -5,7.6 3.7,2.4 7.2,-10.7 c 1,-1.4 1.7,-2.6 2,-3.7 0.4,-1.1 0.7,-2.2 0.7,-3.2 0,-1.3 -0.3,-2.6 -1,-3.9 -0.7,-1.2 -1.7,-2.2 -2.9,-2.9 m 4.9,-37.3 h 4.5 V 97.3 H 49.5 l -2.8,4.5 H 51 v 19.4 M 180,46.3 c 1.8,-1.9 3,-3.4 3.5,-4.5 0.7,-1.2 1,-2.6 1,-4 0,-2.1 -0.8,-3.9 -2.2,-5.4 -1.4,-1.5 -3.4,-2.3 -5.6,-2.3 -2.3,0 -4.3,0.8 -5.8,2.4 -1.5,1.5 -2.4,3.6 -2.4,6.1 v 1.2 h 4.4 l 0.1,-1.1 c 0.1,-1.3 0.6,-2.4 1.2,-3.1 0.7,-0.7 1.5,-1 2.5,-1 1,0 1.8,0.3 2.4,1 0.7,0.7 1,1.3 1,2.2 0,0.8 -0.2,1.4 -0.6,2.1 -0.3,0.6 -1.1,1.7 -3.1,3.7 l -10.1,10.9 h 18.5 v -4.5 h -8.4 l 3.5,-3.7 m -78.4,25 V 47.4 H 95.6 l -2.8,4.5 h 4.3 v 19.4 h 4.5 M 57,226.7 c 0.6,-0.4 1.2,-0.8 2.1,-0.8 1,0 1.8,0.2 2.2,0.8 0.4,0.6 0.8,1 0.8,1.5 0,0.4 -0.1,0.8 -0.3,1.2 -0.2,0.4 -0.6,0.8 -1,1 -0.4,0.2 -0.9,0.3 -1.4,0.3 -0.8,0 -1.5,-0.2 -2.1,-0.9 -0.6,-0.6 -0.9,-1.1 -0.9,-1.7 0,-0.7 0.2,-1.1 0.8,-1.5 z m 5,14.2 c -0.7,0.7 -1.7,1 -2.9,1 -0.8,0 -1.5,-0.1 -2.1,-0.4 -0.6,-0.3 -1,-0.7 -1.3,-1.2 -0.3,-0.6 -0.4,-1 -0.4,-1.7 0,-1 0.3,-1.8 1.1,-2.4 0.8,-0.8 1.8,-1.1 2.9,-1.1 1.1,0 2,0.3 2.8,1.1 0.8,0.7 1.1,1.4 1.1,2.3 0,0.9 -0.3,1.7 -1,2.4 z m 2.5,-8.2 c 0.4,-0.3 0.8,-0.8 1.1,-1.2 0.7,-1 1,-2.1 1,-3.3 0,-1.2 -0.3,-2.3 -1,-3.4 -0.7,-1.1 -1.5,-1.9 -2.6,-2.5 -2.3,-1.2 -5.2,-1.2 -7.5,0 -1.2,0.7 -2.1,1.4 -2.8,2.5 -0.7,1.1 -1,2.2 -1,3.4 0,1.2 0.3,2.2 1,3.3 0.3,0.4 0.7,0.9 1.1,1.3 -0.9,0.6 -1.5,1.2 -2,2 -0.8,1.1 -1.2,2.4 -1.2,3.9 0,2 0.8,3.7 2.2,5.3 1.4,1.7 3.5,2.4 6.3,2.4 2.9,0 5.1,-0.9 6.6,-2.8 1.2,-1.4 1.9,-3.2 1.9,-5.2 0,-1.4 -0.3,-2.8 -1.1,-3.9 -0.4,-0.7 -1.1,-1.3 -1.9,-1.9 M 109.2,51.9 h 4.3 v 19.4 h 4.5 v -23.9 h -6.1 l -2.8,4.5" />
            
                <g class="hr">
                    <circle cx="170" cy="170" r="170" opacity="0" />
                    <path fill="#332f22" stroke="none" d="M 170.8,172.3 175.7,97.1 170,89.9 h -0.8 l -5.7,7.2 c 0,0 3,74.8 3,75.2 -1.1,5.7 -3.4,20 -3.8,25.7 l 5.3,3.8 5.3,-3.4" />
                </g>
                <g class="min">
                    <circle cx="170" cy="170" r="170" opacity="0" />
                    <path fill="#332f22" stroke="none" d="m 170,72.5 h -0.4 l -5.7,11 C 163.6,113.3 166.6,142.4 166.6,172.3 c -1.1,5.7 -3,20 -3.8,25.7 l 5.3,3.8 5.3,-3.4 c -0.4,-5.7 -2.3,-20.4 -2.6,-26.1 0.8,-29.5 4.2,-58.9 4.9,-88.4" />
                </g>
                <g class="sec">
                    <circle cx="170" cy="170" r="170" opacity="0"  />
                    <path fill="#ff0000" d="m 170,58.9 c -0.8,0 -1.1,0 -1.1,1.1 V 213.8 c 0,0.4 0.4,1.1 1.1,1.1 0.4,0 1.1,-0.4 1.1,-1.1 V 60.1 c 0,-0.8 -0.4,-1.1 -1.1,-1.1 z" />
                </g>
                <circle cx="170" cy="170" r="9.4" fill="#332f22" stroke="none" />

            </g>

            <mask id="mask01"  maskUnits="userSpaceOnUse">
                <rect width="100%" height="283.2" style="fill: #FFF; stroke: none"></rect>
            </mask>

            <filter id="filterBlur" height="566">

                <feGaussianBlur in="SourceGraphic" stdDeviation="4" result="gBlur" />
                <feMorphology in="SourceGraphic" operator="dilate" radius="2" result="mor" />
                <feComposite  in="gBlur" in2="SourceGraphic" operator="in" result="com" />

            </filter>
            
            <linearGradient id="gradient" x1="0" y1="0" x2="0" y2="100%">
                <stop offset="0" stop-color="#a99ea3" stop-opacity="0.95" />
                <stop offset="0.7" stop-color="#a99ea3" stop-opacity="0.4" />
            </linearGradient>                      

            <mask id="shadow" x="0" y="100" width="120" height="200">
                <ellipse cx="170" cy="170" rx="170" ry="170" fill="url(#gradient)" filter="url(#filterBlur)"></ellipse><!--  #000"-->
            </mask>

            <radialGradient id="innerShadow" gradientUnits="userSpaceOnUse" cx="170" cy="170" r="156.796">
                <stop offset="0.7" style="stop-color: #e8d593; stop-opacity: 0.8"></stop>
                <stop offset="0.9" style="stop-color: #e8d593; stop-opacity: 0"></stop>
            </radialGradient>
        
            <filter id="ripple" x="0" y="0" width="100%" height="100%">
                <feTurbulence id="noise" numOctaves="3" seed="2" baseFrequency="0.02 0.05" />
                <feDisplacementMap scale="1" in="SourceGraphic" />
                <animate id="turboAnim" dur="1s" href="#noise" attributeName="baseFrequency"
                    keyTimes="0;0.5;1"
                    values="0.01 0.03; 0.02 0.04; 0.01 0.03;" repeatCount="indefinite" />
            </filter>

        </defs>

        <g id="maskGroup" fill="#332f22">

            <g transform="translate(0, 567) scale(1, -1)">
                <g id="mirror" filter="url(#filterBlur)" opacity="0.3">
                    <g filter="url(#ripple)">
                        <use href="#clock"></use>
                    </g>
                </g>
                <path d="M 0 0 H 341.6 V 280 H 0 V 0 Z" fill="url(#gradient)" stroke="none" />
            </g>
            <g mask="url(#mask01)">
                <use id="main" href="#clock"></use>
            </g>
            
            <path fill="url(#innerShadow)" d="M 59.573 280.462 L 280.427 280.462 C 277.39 283.452 274.23 286.32 270.955 289.057 L 69.045 289.057 C 65.77 286.32 62.61 283.452 59.573 280.462 Z" />

        </g>

    </svg>
